# Blender 4.3.0
# www.blender.org
mtllib circle.mtl
o Circle
v 0.000000 1.000000 0.000000
v -0.382683 0.923880 0.000000
v -0.707107 0.707107 0.000000
v -0.923880 0.382683 0.000000
v -1.000000 0.000000 0.000000
v -0.923880 -0.382683 0.000000
v -0.707107 -0.707107 0.000000
v -0.382683 -0.923880 0.000000
v 0.000000 -1.000000 0.000000
v 0.382683 -0.923880 0.000000
v 0.707107 -0.707107 0.000000
v 0.923880 -0.382683 0.000000
v 1.000000 0.000000 0.000000
v 0.923880 0.382683 0.000000
v 0.707107 0.707107 0.000000
v 0.382683 0.923880 0.000000
vn -0.0000 -0.0000 1.0000
vt 0.308658 0.038060
vt 0.961940 0.308658
vt 0.691342 0.961940
vt 0.500000 1.000000
vt 0.308658 0.961940
vt 0.146447 0.853553
vt 0.038060 0.691342
vt 0.000000 0.500000
vt 0.038060 0.308658
vt 0.146447 0.146447
vt 0.500000 0.000000
vt 0.691342 0.038060
vt 0.853553 0.146447
vt 1.000000 0.500000
vt 0.961940 0.691342
vt 0.853553 0.853553
s 0
f 8/1/1 12/2/1 16/3/1
f 16/3/1 1/4/1 2/5/1
f 2/5/1 3/6/1 16/3/1
f 3/6/1 4/7/1 16/3/1
f 4/7/1 5/8/1 6/9/1
f 6/9/1 7/10/1 4/7/1
f 7/10/1 8/1/1 4/7/1
f 8/1/1 9/11/1 10/12/1
f 10/12/1 11/13/1 8/1/1
f 11/13/1 12/2/1 8/1/1
f 12/2/1 13/14/1 14/15/1
f 14/15/1 15/16/1 12/2/1
f 15/16/1 16/3/1 12/2/1
f 16/3/1 4/7/1 8/1/1
